# xmcd
#
# Track frame offsets:
#	150
#	15563
#	34525
#	48385
#	70251
#	87763
#
# Disc length: 1442 seconds
#
# Revision: 0
# Processed by: cddbd v1.5.2PL0 Copyright (c) Steve Scherf et al.
# Submitted via: dBpowerAMP V4.0
#
DISCID=3f05a006
DTITLE=Fortune Sons, The - The Fortunate Sons
DYEAR=1900
DGENRE=
TTITLE0=Get Away
TTITLE1=Slave Chain
TTITLE2=Over Again
TTITLE3=Poets
TTITLE4=Wasted Time
TTITLE5=She Comes Around
EXTD=
EXTT0=
EXTT1=
EXTT2=
EXTT3=
EXTT4=
EXTT5=
PLAYORDER=
